<?xml version="1.0" encoding="utf-8" ?>
<svg baseProfile="tiny" height="100%" version="1.2" width="100%" xmlns="http://www.w3.org/2000/svg" xmlns:ev="http://www.w3.org/2001/xml-events" xmlns:xlink="http://www.w3.org/1999/xlink"><defs /><line stroke="black" x1="450" x2="480" y1="120" y2="120" /><line stroke="black" x1="480" x2="510" y1="390" y2="390" /><line stroke="black" x1="510" x2="510" y1="150" y2="180" /><line stroke="black" x1="450" x2="480" y1="180" y2="180" /><line stroke="black" x1="360" x2="360" y1="420" y2="450" /><line stroke="black" x1="540" x2="540" y1="510" y2="540" /><line stroke="black" x1="450" x2="450" y1="30" y2="60" /><line stroke="black" x1="210" x2="210" y1="330" y2="360" /><line stroke="black" x1="390" x2="420" y1="480" y2="480" /><line stroke="black" x1="330" x2="330" y1="240" y2="270" /><line stroke="black" x1="120" x2="120" y1="90" y2="120" /><line stroke="black" x1="510" x2="540" y1="120" y2="120" /><line stroke="black" x1="420" x2="420" y1="450" y2="480" /><line stroke="black" x1="0" x2="30" y1="450" y2="450" /><line stroke="black" x1="420" x2="450" y1="480" y2="480" /><line stroke="black" x1="390" x2="390" y1="420" y2="450" /><line stroke="black" x1="270" x2="300" y1="180" y2="180" /><line stroke="black" x1="510" x2="540" y1="240" y2="240" /><line stroke="black" x1="450" x2="450" y1="270" y2="300" /><line stroke="black" x1="450" x2="450" y1="90" y2="120" /><line stroke="black" x1="330" x2="360" y1="450" y2="450" /><line stroke="black" x1="510" x2="510" y1="540" y2="570" /><line stroke="black" x1="300" x2="300" y1="120" y2="150" /><line stroke="black" x1="30" x2="30" y1="270" y2="300" /><line stroke="black" x1="30" x2="30" y1="330" y2="360" /><line stroke="black" x1="210" x2="240" y1="330" y2="330" /><line stroke="black" x1="0" x2="30" y1="390" y2="390" /><line stroke="black" x1="360" x2="360" y1="60" y2="90" /><line stroke="black" x1="570" x2="570" y1="150" y2="180" /><line stroke="black" x1="60" x2="90" y1="150" y2="150" /><line stroke="black" x1="450" x2="480" y1="150" y2="150" /><line stroke="black" x1="300" x2="300" y1="330" y2="360" /><line stroke="black" x1="450" x2="450" y1="300" y2="330" /><line stroke="black" x1="420" x2="420" y1="270" y2="300" /><line stroke="black" x1="390" x2="420" y1="210" y2="210" /><line stroke="black" x1="30" x2="60" y1="540" y2="540" /><line stroke="black" x1="240" x2="270" y1="120" y2="120" /><line stroke="black" x1="60" x2="90" y1="240" y2="240" /><line stroke="black" x1="30" x2="30" y1="120" y2="150" /><line stroke="black" x1="480" x2="510" y1="210" y2="210" /><line stroke="black" x1="60" x2="60" y1="150" y2="180" /><line stroke="black" x1="450" x2="480" y1="90" y2="90" /><line stroke="black" x1="480" x2="480" y1="210" y2="240" /><line stroke="black" x1="300" x2="300" y1="60" y2="90" /><line stroke="black" x1="360" x2="360" y1="210" y2="240" /><line stroke="black" x1="300" x2="300" y1="240" y2="270" /><line stroke="black" x1="540" x2="570" y1="570" y2="570" /><line stroke="black" x1="540" x2="570" y1="420" y2="420" /><line stroke="black" x1="510" x2="510" y1="210" y2="240" /><line stroke="black" x1="270" x2="300" y1="90" y2="90" /><line stroke="black" x1="210" x2="240" y1="390" y2="390" /><line stroke="black" x1="480" x2="480" y1="30" y2="60" /><line stroke="black" x1="210" x2="240" y1="420" y2="420" /><line stroke="black" x1="180" x2="180" y1="450" y2="480" /><line stroke="black" x1="150" x2="150" y1="180" y2="210" /><line stroke="black" x1="360" x2="360" y1="180" y2="210" /><line stroke="black" x1="570" x2="570" y1="240" y2="270" /><line stroke="black" x1="180" x2="210" y1="390" y2="390" /><line stroke="black" x1="150" x2="180" y1="300" y2="300" /><line stroke="black" x1="510" x2="510" y1="120" y2="150" /><line stroke="black" x1="450" x2="480" y1="240" y2="240" /><line stroke="black" x1="360" x2="390" y1="540" y2="540" /><line stroke="black" x1="420" x2="420" y1="90" y2="120" /><line stroke="black" x1="540" x2="570" y1="90" y2="90" /><line stroke="black" x1="240" x2="270" y1="180" y2="180" /><line stroke="black" x1="540" x2="540" y1="330" y2="360" /><line stroke="black" x1="210" x2="210" y1="90" y2="120" /><line stroke="black" x1="180" x2="210" y1="330" y2="330" /><line stroke="black" x1="390" x2="390" y1="390" y2="420" /><line stroke="black" x1="540" x2="570" y1="360" y2="360" /><line stroke="black" x1="120" x2="120" y1="450" y2="480" /><line stroke="black" x1="330" x2="360" y1="180" y2="180" /><line stroke="black" x1="210" x2="240" y1="270" y2="270" /><line stroke="black" x1="0" x2="30" y1="60" y2="60" /><line stroke="black" x1="330" x2="330" y1="150" y2="180" /><line stroke="black" x1="30" x2="30" y1="480" y2="510" /><line stroke="black" x1="120" x2="120" y1="420" y2="450" /><line stroke="black" x1="180" x2="210" y1="570" y2="570" /><line stroke="black" x1="390" x2="420" y1="120" y2="120" /><line stroke="black" x1="270" x2="270" y1="390" y2="420" /><line stroke="black" x1="300" x2="330" y1="360" y2="360" /><line stroke="black" x1="150" x2="150" y1="540" y2="570" /><line stroke="black" x1="180" x2="180" y1="0" y2="30" /><line stroke="black" x1="330" x2="330" y1="390" y2="420" /><line stroke="black" x1="570" x2="600" y1="240" y2="240" /><line stroke="black" x1="150" x2="150" y1="420" y2="450" /><line stroke="black" x1="510" x2="540" y1="300" y2="300" /><line stroke="black" x1="60" x2="60" y1="510" y2="540" /><line stroke="black" x1="450" x2="480" y1="270" y2="270" /><line stroke="black" x1="150" x2="150" y1="120" y2="150" /><line stroke="black" x1="420" x2="420" y1="240" y2="270" /><line stroke="black" x1="150" x2="180" y1="450" y2="450" /><line stroke="black" x1="120" x2="150" y1="120" y2="120" /><line stroke="black" x1="90" x2="90" y1="60" y2="90" /><line stroke="black" x1="30" x2="60" y1="210" y2="210" /><line stroke="black" x1="60" x2="90" y1="360" y2="360" /><line stroke="black" x1="60" x2="90" y1="450" y2="450" /><line stroke="black" x1="60" x2="60" y1="240" y2="270" /><line stroke="black" x1="180" x2="180" y1="90" y2="120" /><line stroke="black" x1="240" x2="270" y1="210" y2="210" /><line stroke="black" x1="270" x2="270" y1="570" y2="600" /><line stroke="black" x1="300" x2="330" y1="300" y2="300" /><line stroke="black" x1="510" x2="510" y1="60" y2="90" /><line stroke="black" x1="360" x2="360" y1="120" y2="150" /><line stroke="black" x1="90" x2="120" y1="90" y2="90" /><line stroke="black" x1="150" x2="180" y1="420" y2="420" /><line stroke="black" x1="300" x2="330" y1="540" y2="540" /><line stroke="black" x1="90" x2="90" y1="0" y2="30" /><line stroke="black" x1="570" x2="570" y1="180" y2="210" /><line stroke="black" x1="270" x2="300" y1="270" y2="270" /><line stroke="black" x1="450" x2="480" y1="570" y2="570" /><line stroke="black" x1="180" x2="210" y1="270" y2="270" /><line stroke="black" x1="330" x2="360" y1="120" y2="120" /><line stroke="black" x1="450" x2="480" y1="450" y2="450" /><line stroke="black" x1="120" x2="150" y1="450" y2="450" /><line stroke="black" x1="300" x2="330" y1="180" y2="180" /><line stroke="black" x1="390" x2="420" y1="240" y2="240" /><line stroke="black" x1="60" x2="60" y1="480" y2="510" /><line stroke="black" x1="30" x2="30" y1="60" y2="90" /><line stroke="black" x1="300" x2="330" y1="390" y2="390" /><line stroke="black" x1="90" x2="120" y1="270" y2="270" /><line stroke="black" x1="150" x2="150" y1="360" y2="390" /><line stroke="black" x1="180" x2="210" y1="210" y2="210" /><line stroke="black" x1="150" x2="180" y1="60" y2="60" /><line stroke="black" x1="390" x2="390" y1="330" y2="360" /><line stroke="black" x1="210" x2="240" y1="60" y2="60" /><line stroke="black" x1="240" x2="240" y1="240" y2="270" /><line stroke="black" x1="570" x2="600" y1="120" y2="120" /><line stroke="black" x1="420" x2="450" y1="330" y2="330" /><line stroke="black" x1="510" x2="540" y1="60" y2="60" /><line stroke="black" x1="330" x2="360" y1="30" y2="30" /><line stroke="black" x1="480" x2="510" y1="30" y2="30" /><line stroke="black" x1="510" x2="510" y1="450" y2="480" /><line stroke="black" x1="480" x2="480" y1="180" y2="210" /><line stroke="black" x1="210" x2="240" y1="30" y2="30" /><line stroke="black" x1="360" x2="360" y1="480" y2="510" /><line stroke="black" x1="120" x2="120" y1="540" y2="570" /><line stroke="black" x1="210" x2="240" y1="150" y2="150" /><line stroke="black" x1="210" x2="240" y1="360" y2="360" /><line stroke="black" x1="210" x2="210" y1="420" y2="450" /><line stroke="black" x1="240" x2="270" y1="60" y2="60" /><line stroke="black" x1="60" x2="90" y1="120" y2="120" /><line stroke="black" x1="240" x2="270" y1="30" y2="30" /><line stroke="black" x1="180" x2="210" y1="450" y2="450" /><line stroke="black" x1="510" x2="540" y1="270" y2="270" /><line stroke="black" x1="150" x2="180" y1="90" y2="90" /><line stroke="black" x1="330" x2="360" y1="60" y2="60" /><line stroke="black" x1="510" x2="510" y1="270" y2="300" /><line stroke="black" x1="390" x2="390" y1="300" y2="330" /><line stroke="black" x1="270" x2="300" y1="510" y2="510" /><line stroke="black" x1="90" x2="90" y1="120" y2="150" /><line stroke="black" x1="240" x2="270" y1="300" y2="300" /><line stroke="black" x1="240" x2="270" y1="570" y2="570" /><line stroke="black" x1="390" x2="390" y1="360" y2="390" /><line stroke="black" x1="240" x2="270" y1="270" y2="270" /><line stroke="black" x1="210" x2="240" y1="540" y2="540" /><line stroke="black" x1="90" x2="90" y1="270" y2="300" /><line stroke="black" x1="480" x2="510" y1="420" y2="420" /><line stroke="black" x1="420" x2="420" y1="360" y2="390" /><line stroke="black" x1="30" x2="60" y1="30" y2="30" /><line stroke="black" x1="150" x2="150" y1="90" y2="120" /><line stroke="black" x1="390" x2="390" y1="570" y2="600" /><line stroke="black" x1="480" x2="480" y1="150" y2="180" /><line stroke="black" x1="450" x2="450" y1="180" y2="210" /><line stroke="black" x1="510" x2="540" y1="510" y2="510" /><line stroke="black" x1="180" x2="180" y1="270" y2="300" /><line stroke="black" x1="180" x2="180" y1="510" y2="540" /><line stroke="black" x1="540" x2="540" y1="120" y2="150" /><line stroke="black" x1="90" x2="90" y1="180" y2="210" /><line stroke="black" x1="480" x2="510" y1="510" y2="510" /><line stroke="black" x1="360" x2="360" y1="300" y2="330" /><line stroke="black" x1="570" x2="600" y1="480" y2="480" /><line stroke="black" x1="120" x2="150" y1="240" y2="240" /><line stroke="black" x1="390" x2="390" y1="30" y2="60" /><line stroke="black" x1="180" x2="210" y1="150" y2="150" /><line stroke="black" x1="0" x2="30" y1="240" y2="240" /><line stroke="black" x1="390" x2="420" y1="510" y2="510" /><line stroke="black" x1="120" x2="150" y1="30" y2="30" /><line stroke="black" x1="180" x2="180" y1="240" y2="270" /><line stroke="black" x1="570" x2="600" y1="30" y2="30" /><line stroke="black" x1="450" x2="450" y1="240" y2="270" /><line stroke="black" x1="30" x2="60" y1="90" y2="90" /><line stroke="black" x1="540" x2="570" y1="120" y2="120" /><line stroke="black" x1="300" x2="300" y1="480" y2="510" /><line stroke="black" x1="270" x2="270" y1="510" y2="540" /><line stroke="black" x1="210" x2="240" y1="510" y2="510" /><line stroke="black" x1="180" x2="210" y1="90" y2="90" /><line stroke="black" x1="510" x2="510" y1="420" y2="450" /><line stroke="black" x1="240" x2="240" y1="480" y2="510" /><line stroke="black" x1="570" x2="570" y1="30" y2="60" /><line stroke="black" x1="390" x2="390" y1="60" y2="90" /><line stroke="black" x1="420" x2="450" y1="360" y2="360" /><line stroke="black" x1="60" x2="60" y1="390" y2="420" /><line stroke="black" x1="450" x2="480" y1="480" y2="480" /><line stroke="black" x1="570" x2="600" y1="300" y2="300" /><line stroke="black" x1="210" x2="210" y1="180" y2="210" /><line stroke="black" x1="450" x2="480" y1="540" y2="540" /><line stroke="black" x1="60" x2="60" y1="270" y2="300" /><line stroke="black" x1="360" x2="390" y1="30" y2="30" /><line stroke="black" x1="0" x2="30" y1="330" y2="330" /><line stroke="black" x1="330" x2="330" y1="180" y2="210" /><line stroke="black" x1="210" x2="240" y1="300" y2="300" /><line stroke="black" x1="60" x2="60" y1="90" y2="120" /><line stroke="black" x1="60" x2="60" y1="210" y2="240" /><line stroke="black" x1="300" x2="300" y1="180" y2="210" /><line stroke="black" x1="300" x2="330" y1="330" y2="330" /><line stroke="black" x1="60" x2="60" y1="540" y2="570" /><line stroke="black" x1="420" x2="420" y1="300" y2="330" /><line stroke="black" x1="120" x2="120" y1="330" y2="360" /><line stroke="black" x1="270" x2="270" y1="420" y2="450" /><line stroke="black" x1="120" x2="150" y1="390" y2="390" /><line stroke="black" x1="300" x2="330" y1="30" y2="30" /><line stroke="black" x1="420" x2="420" y1="30" y2="60" /><line stroke="black" x1="540" x2="540" y1="210" y2="240" /><line stroke="black" x1="330" x2="360" y1="270" y2="270" /><line stroke="black" x1="480" x2="510" y1="90" y2="90" /><line stroke="black" x1="90" x2="120" y1="330" y2="330" /><line stroke="black" x1="270" x2="300" y1="450" y2="450" /><line stroke="black" x1="480" x2="480" y1="510" y2="540" /><line stroke="black" x1="540" x2="540" y1="360" y2="390" /><line stroke="black" x1="540" x2="540" y1="420" y2="450" /><line stroke="black" x1="60" x2="90" y1="270" y2="270" /><line stroke="black" x1="300" x2="300" y1="270" y2="300" /><line stroke="black" x1="450" x2="450" y1="390" y2="420" /><line stroke="black" x1="210" x2="210" y1="240" y2="270" /><line stroke="black" x1="30" x2="30" y1="150" y2="180" /><line stroke="black" x1="330" x2="330" y1="570" y2="600" /><line stroke="black" x1="0" x2="30" y1="570" y2="570" /><line stroke="black" x1="450" x2="480" y1="420" y2="420" /><line stroke="black" x1="120" x2="120" y1="30" y2="60" /><line stroke="black" x1="120" x2="150" y1="540" y2="540" /><line stroke="black" x1="120" x2="150" y1="150" y2="150" /><line stroke="black" x1="540" x2="540" y1="480" y2="510" /><line stroke="black" x1="300" x2="300" y1="540" y2="570" /><line stroke="black" x1="480" x2="510" y1="60" y2="60" /><line stroke="black" x1="450" x2="480" y1="300" y2="300" /><line stroke="black" x1="120" x2="120" y1="180" y2="210" /><line stroke="black" x1="90" x2="120" y1="570" y2="570" /><line stroke="black" x1="60" x2="90" y1="390" y2="390" /><line stroke="black" x1="330" x2="330" y1="60" y2="90" /><line stroke="black" x1="450" x2="450" y1="360" y2="390" /><line stroke="black" x1="120" x2="120" y1="360" y2="390" /><line stroke="black" x1="120" x2="120" y1="210" y2="240" /><line stroke="black" x1="300" x2="300" y1="300" y2="330" /><line stroke="black" x1="60" x2="90" y1="510" y2="510" /><line stroke="black" x1="270" x2="270" y1="150" y2="180" /><line stroke="black" x1="480" x2="510" y1="330" y2="330" /><line stroke="black" x1="510" x2="510" y1="570" y2="600" /><line stroke="black" x1="420" x2="450" y1="30" y2="30" /><line stroke="black" x1="570" x2="570" y1="120" y2="150" /><line stroke="black" x1="30" x2="30" y1="390" y2="420" /><line stroke="black" x1="240" x2="240" y1="420" y2="450" /><line stroke="black" x1="90" x2="90" y1="570" y2="600" /><line stroke="black" x1="360" x2="360" y1="150" y2="180" /><line stroke="black" x1="300" x2="330" y1="450" y2="450" /><line stroke="black" x1="210" x2="210" y1="570" y2="600" /><line stroke="black" x1="510" x2="540" y1="330" y2="330" /><line stroke="black" x1="90" x2="90" y1="390" y2="420" /><line stroke="black" x1="360" x2="390" y1="450" y2="450" /><line stroke="black" x1="120" x2="120" y1="300" y2="330" /><line stroke="black" x1="420" x2="420" y1="480" y2="510" /><line stroke="black" x1="450" x2="480" y1="390" y2="390" /><line stroke="black" x1="360" x2="390" y1="180" y2="180" /><line stroke="black" x1="210" x2="210" y1="300" y2="330" /><line stroke="black" x1="210" x2="210" y1="60" y2="90" /><line stroke="black" x1="240" x2="240" y1="120" y2="150" /><line stroke="black" x1="540" x2="570" y1="510" y2="510" /><line stroke="black" x1="510" x2="510" y1="330" y2="360" /><line stroke="black" x1="390" x2="390" y1="90" y2="120" /><line stroke="black" x1="60" x2="60" y1="420" y2="450" /><line stroke="black" x1="90" x2="120" y1="360" y2="360" /><line stroke="black" x1="180" x2="210" y1="300" y2="300" /><line stroke="black" x1="300" x2="330" y1="90" y2="90" /><line stroke="black" x1="360" x2="360" y1="330" y2="360" /><line stroke="black" x1="240" x2="270" y1="450" y2="450" /><line stroke="black" x1="300" x2="330" y1="480" y2="480" /><line stroke="black" x1="150" x2="180" y1="330" y2="330" /><line stroke="black" x1="240" x2="270" y1="240" y2="240" /><line stroke="black" x1="390" x2="420" y1="150" y2="150" /><line stroke="black" x1="270" x2="270" y1="330" y2="360" /><line stroke="black" x1="180" x2="180" y1="360" y2="390" /><line stroke="black" x1="360" x2="390" y1="390" y2="390" /><line stroke="black" x1="150" x2="180" y1="30" y2="30" /><line stroke="black" x1="540" x2="570" y1="390" y2="390" /><line stroke="black" x1="300" x2="330" y1="510" y2="510" /><line stroke="black" x1="570" x2="600" y1="510" y2="510" /><line stroke="black" x1="150" x2="150" y1="30" y2="60" /><line stroke="black" x1="270" x2="270" y1="450" y2="480" /><line stroke="black" x1="510" x2="540" y1="450" y2="450" /><line stroke="black" x1="450" x2="450" y1="0" y2="30" /><line stroke="black" x1="300" x2="330" y1="240" y2="240" /><line stroke="black" x1="90" x2="120" y1="480" y2="480" /><line stroke="black" x1="30" x2="30" y1="450" y2="480" /><line stroke="black" x1="360" x2="390" y1="210" y2="210" /><line stroke="black" x1="180" x2="210" y1="540" y2="540" /><line stroke="black" x1="180" x2="210" y1="480" y2="480" /><line stroke="black" x1="270" x2="300" y1="60" y2="60" /><line stroke="black" x1="0" x2="30" y1="300" y2="300" /><line stroke="black" x1="390" x2="390" y1="270" y2="300" /><line stroke="black" x1="420" x2="420" y1="210" y2="240" /><line stroke="black" x1="450" x2="450" y1="540" y2="570" /><line stroke="black" x1="150" x2="180" y1="540" y2="540" /><line stroke="black" x1="210" x2="210" y1="510" y2="540" /><line stroke="black" x1="330" x2="360" y1="570" y2="570" /><line stroke="black" x1="300" x2="330" y1="570" y2="570" /><line stroke="black" x1="570" x2="570" y1="540" y2="570" /><line stroke="black" x1="150" x2="150" y1="150" y2="180" /><line stroke="black" x1="450" x2="450" y1="510" y2="540" /><line stroke="black" x1="570" x2="600" y1="90" y2="90" /><line stroke="black" x1="480" x2="480" y1="420" y2="450" /><line stroke="black" x1="390" x2="390" y1="150" y2="180" /><line stroke="black" x1="150" x2="150" y1="510" y2="540" /><line stroke="black" x1="180" x2="180" y1="210" y2="240" /><line stroke="black" x1="90" x2="120" y1="540" y2="540" /><line stroke="black" x1="360" x2="360" y1="450" y2="480" /><line stroke="black" x1="0" x2="30" y1="150" y2="150" /><line stroke="black" x1="360" x2="390" y1="120" y2="120" /><line stroke="black" x1="570" x2="600" y1="450" y2="450" /><line stroke="black" x1="0" x2="30" y1="30" y2="30" /><line stroke="black" x1="450" x2="450" y1="480" y2="510" /><line stroke="black" x1="570" x2="600" y1="570" y2="570" /><line stroke="black" x1="150" x2="150" y1="240" y2="270" /><line stroke="black" x1="240" x2="240" y1="90" y2="120" /><line stroke="black" x1="90" x2="120" y1="180" y2="180" /><line stroke="black" x1="390" x2="420" y1="570" y2="570" /><line stroke="black" x1="390" x2="420" y1="540" y2="540" /><line stroke="black" x1="150" x2="180" y1="180" y2="180" /><line stroke="black" x1="420" x2="420" y1="540" y2="570" /><line stroke="black" x1="390" x2="420" y1="420" y2="420" /><line stroke="black" x1="120" x2="120" y1="480" y2="510" /><line stroke="black" x1="390" x2="420" y1="180" y2="180" /><line stroke="black" x1="540" x2="570" y1="330" y2="330" /><line stroke="black" x1="150" x2="180" y1="360" y2="360" /><line stroke="black" x1="210" x2="210" y1="150" y2="180" /><line stroke="black" x1="60" x2="90" y1="480" y2="480" /><line stroke="black" x1="270" x2="300" y1="120" y2="120" /><line stroke="black" x1="120" x2="150" y1="300" y2="300" /><line stroke="black" x1="330" x2="330" y1="360" y2="390" /><line stroke="black" x1="360" x2="390" y1="300" y2="300" /><line stroke="black" x1="570" x2="600" y1="360" y2="360" /><line stroke="black" x1="120" x2="150" y1="180" y2="180" /><line stroke="black" x1="540" x2="540" y1="60" y2="90" /><line stroke="black" x1="540" x2="570" y1="270" y2="270" /><line stroke="black" x1="60" x2="60" y1="450" y2="480" /><line stroke="black" x1="510" x2="540" y1="480" y2="480" /><line stroke="black" x1="240" x2="270" y1="540" y2="540" /><line stroke="black" x1="180" x2="180" y1="180" y2="210" /><line stroke="black" x1="270" x2="270" y1="210" y2="240" /><line stroke="black" x1="60" x2="60" y1="300" y2="330" /><line stroke="black" x1="90" x2="90" y1="150" y2="180" /><line stroke="black" x1="450" x2="480" y1="330" y2="330" /><line stroke="black" x1="30" x2="30" y1="180" y2="210" /><line stroke="black" x1="300" x2="300" y1="420" y2="450" /><line stroke="black" x1="480" x2="480" y1="330" y2="360" /><line stroke="black" x1="540" x2="540" y1="180" y2="210" /><line stroke="black" x1="270" x2="300" y1="360" y2="360" /><line stroke="black" x1="150" x2="150" y1="450" y2="480" /><line stroke="black" x1="270" x2="270" y1="30" y2="60" /><line stroke="black" x1="540" x2="570" y1="30" y2="30" /><line stroke="black" x1="30" x2="60" y1="60" y2="60" /><line stroke="black" x1="60" x2="60" y1="570" y2="600" /><line stroke="black" x1="30" x2="600" y1="0" y2="0" /><line stroke="black" x1="0" x2="570" y1="600" y2="600" /><line stroke="black" x1="0" x2="0" y1="0" y2="600" /><line stroke="black" x1="600" x2="600" y1="0" y2="600" /></svg>